<svg width="24" height="24" viewBox="0 0 24 24" fill="none" xmlns="http://www.w3.org/2000/svg">
<rect x="0.0761719" y="0.571777" width="24" height="24" fill="#1C1C22"/>
<path fill-rule="evenodd" clip-rule="evenodd" d="M6.07617 5.07178C6.9046 5.07178 7.57617 5.74335 7.57617 6.57178L7.57617 9.57178C7.57617 10.4002 6.9046 11.0718 6.07617 11.0718C5.24774 11.0718 4.57617 10.4002 4.57617 9.57178L4.57617 6.57178C4.57617 5.74335 5.24774 5.07178 6.07617 5.07178Z" fill="white"/>
<path fill-rule="evenodd" clip-rule="evenodd" d="M6.07617 14.0718C6.9046 14.0718 7.57617 14.7434 7.57617 15.5718L7.57617 18.5718C7.57617 19.4002 6.9046 20.0718 6.07617 20.0718C5.24774 20.0718 4.57617 19.4002 4.57617 18.5718L4.57617 15.5718C4.57617 14.7434 5.24774 14.0718 6.07617 14.0718Z" fill="white"/>
<path fill-rule="evenodd" clip-rule="evenodd" d="M12.0762 5.07178C12.9046 5.07178 13.5762 5.74335 13.5762 6.57178L13.5762 18.5718C13.5762 19.4002 12.9046 20.0718 12.0762 20.0718C11.2477 20.0718 10.5762 19.4002 10.5762 18.5718L10.5762 6.57178C10.5762 5.74335 11.2477 5.07178 12.0762 5.07178Z" fill="white"/>
<path fill-rule="evenodd" clip-rule="evenodd" d="M18.0762 5.07178C18.9046 5.07178 19.5762 5.74335 19.5762 6.57178L19.5762 18.5718C19.5762 19.4002 18.9046 20.0718 18.0762 20.0718C17.2477 20.0718 16.5762 19.4002 16.5762 18.5718L16.5762 6.57178C16.5762 5.74335 17.2477 5.07178 18.0762 5.07178Z" fill="white"/>
</svg>
